<svg width="170" height="52" viewBox="0 0 170 52" fill="none" xmlns="http://www.w3.org/2000/svg">
<path d="M47.2912 15.4303L47.0701 18.2872H50.2977L50.2095 19.7501H46.7436L46.4625 23.6982H44.6326L45.7837 13.9674H51.4862L51.3981 15.4303H47.2912Z" fill="#F16122"/>
<path d="M61.6115 23.6974L59.8202 19.818H58.9748L58.4675 23.6974H56.4031L57.7886 13.9707H61.4607C63.3673 13.9707 64.2419 15.3244 63.9316 16.9489C63.6696 18.3148 62.7062 19.1634 61.7348 19.5028L63.7317 23.6974H61.6115ZM61.0213 15.4295H59.2961L59.0387 18.4683H60.7639C61.566 18.4683 62.1036 17.6783 62.1056 16.9489C62.1073 16.3485 61.8235 15.4295 61.0213 15.4295Z" fill="#F16122"/>
<path d="M139.844 23.6974L138.053 19.818H137.208L136.7 23.6974H134.636L136.021 13.9707H139.693C141.6 13.9707 142.475 15.3244 142.164 16.9489C141.902 18.3148 140.939 19.1634 139.968 19.5028L141.964 23.6974H139.844ZM139.254 15.4295H137.529L137.271 18.4683H138.997C139.799 18.4683 140.336 17.6783 140.338 16.9489C140.34 16.3485 140.056 15.4295 139.254 15.4295Z" fill="#F16122"/>
<path d="M69.7149 23.6982L70.6317 13.9674H76.5685L76.4804 15.4303H72.3736L72.1726 18.1781H75.1658L75.0777 19.641H71.8461L71.633 22.2393H75.5055L75.4134 23.6982H69.7149Z" fill="#F16122"/>
<path d="M81.6666 23.6982L82.5834 13.9674H88.5202L88.4321 15.4303H84.3252L84.1242 18.1781H87.1175L87.0293 19.641H83.7978L83.5847 22.2393H87.4572L87.365 23.6982H81.6666Z" fill="#F16122"/>
<path d="M161.818 23.6982L162.735 13.9674H168.672L168.584 15.4303H164.477L164.276 18.1781H167.269L167.181 19.641H163.95L163.736 22.2393H167.609L167.517 23.6982H161.818Z" fill="#F16122"/>
<path d="M96.3491 23.7787C95.3495 23.7787 94.5756 23.4231 94.0274 22.7119C93.7009 22.2876 93.5437 21.7986 93.5437 21.2491C93.5437 20.7035 93.6445 19.8953 93.846 18.8325C94.0476 17.7657 94.2572 16.9616 94.4668 16.416C94.6804 15.8543 95.019 15.3775 95.5067 14.9532C96.325 14.242 97.2359 13.8864 98.2356 13.8864C100.037 13.8864 101.158 14.9815 101.097 16.9616H99.2433C99.203 16.1291 98.8079 15.5795 97.9252 15.5795C97.4254 15.5795 96.9981 15.7452 96.6595 16.0847C96.196 16.509 96.0347 16.9454 95.676 18.8325C95.3173 20.7197 95.3132 21.1561 95.6115 21.5804C95.8211 21.9239 96.1839 22.0856 96.6877 22.0856C97.5705 22.0856 98.1751 21.54 98.5298 20.7035H100.384C99.6907 22.6836 98.1388 23.7787 96.3491 23.7787Z" fill="#F16122"/>
<path d="M112.506 23.6982L112.816 19.6249H108.94L108.397 23.6982H106.571L107.722 13.9674H109.552L109.028 17.9438H113.134L113.658 13.9674H115.487L114.336 23.6982H112.506Z" fill="#F16122"/>
<path d="M127.027 23.6974L126.567 21.2729H123.003L121.874 23.6974H119.967L124.763 13.9707H126.666L128.933 23.6974H127.027ZM125.449 15.9024L123.591 19.911H126.389L125.449 15.9024Z" fill="#F16122"/>
<path d="M153.699 22.6715C152.829 23.4352 151.898 23.7787 150.845 23.7787C149.793 23.7787 149.072 23.4231 148.524 22.7119C148.197 22.2876 148.04 21.7946 148.04 21.2491C148.04 20.7035 148.141 19.8953 148.342 18.8325C148.544 17.7657 148.753 16.9616 148.963 16.416C149.177 15.8543 149.515 15.3775 150.003 14.9532C150.821 14.242 151.732 13.8864 152.732 13.8864C154.864 13.8864 155.739 15.3088 155.662 17.002H153.82C153.776 16.0604 153.316 15.5795 152.405 15.5795C151.918 15.5795 151.49 15.7573 151.136 16.1008C150.708 16.5534 150.535 16.905 150.168 18.8325C149.806 20.7439 149.81 21.1278 150.092 21.5804C150.301 21.9239 150.668 22.0856 151.168 22.0856C151.708 22.0856 152.176 21.9077 152.575 21.54C152.913 21.2127 153.143 20.7763 153.244 20.2429L153.312 19.8751H151.587L151.889 18.291H155.429L155.158 19.7135C154.888 21.1359 154.477 21.9684 153.699 22.6796" fill="#F16122"/>
<path d="M36.8727 0.530609L1.53064 18.1454L19.8748 23.1441L29.7261 39.4455L31.5722 29.3794L28.4685 24.2392L32.9266 22.0167L34.4623 13.6598L24.9415 18.404L22.9302 15.0742L35.337 8.88742L36.8727 0.530609Z" fill="#F16122"/>
<path d="M66.8959 45.8676C66.7827 45.8676 66.673 45.857 66.5668 45.8358C66.4677 45.8146 66.3757 45.7898 66.2908 45.7615L66.4606 45.0715C66.5173 45.0856 66.581 45.0998 66.6517 45.1139C66.7225 45.1352 66.7897 45.1458 66.8534 45.1458C67.1436 45.1458 67.3842 45.0396 67.5753 44.8273C67.7664 44.6221 67.915 44.3602 68.0211 44.0418L68.1379 43.6596L66.0679 38.4898H66.9702L68.0211 41.3454C68.099 41.5648 68.1804 41.8019 68.2653 42.0566C68.3573 42.3114 68.4422 42.5591 68.5201 42.7997H68.5625C68.6404 42.5662 68.7147 42.322 68.7855 42.0673C68.8562 41.8125 68.927 41.5719 68.9978 41.3454L69.9213 38.4898H70.7706L68.8279 44.0736C68.7076 44.4133 68.5625 44.7176 68.3927 44.9865C68.2299 45.2555 68.0247 45.4678 67.777 45.6235C67.5364 45.7863 67.2427 45.8676 66.8959 45.8676Z" fill="#97144D"/>
<path d="M63.2673 43.7763C63.0267 43.7763 62.7755 43.7197 62.5136 43.6065C62.2589 43.4862 62.0182 43.3234 61.7918 43.1182H61.7599L61.6856 43.6489H60.985V36.0906H61.8555V38.1501L61.8342 39.0842C62.0678 38.879 62.3225 38.7091 62.5986 38.5747C62.8816 38.4331 63.1647 38.3624 63.4478 38.3624C64.1201 38.3624 64.6297 38.5995 64.9764 39.0736C65.3232 39.5478 65.4966 40.1847 65.4966 40.9844C65.4966 41.5718 65.3905 42.0743 65.1781 42.4918C64.9729 42.9094 64.7004 43.2278 64.3607 43.4472C64.0281 43.6666 63.6637 43.7763 63.2673 43.7763ZM63.1187 43.0438C63.5433 43.0438 63.8937 42.8634 64.1697 42.5024C64.4527 42.1344 64.5943 41.632 64.5943 40.995C64.5943 40.4289 64.4881 39.9724 64.2758 39.6256C64.0706 39.2718 63.7238 39.0948 63.2355 39.0948C63.0161 39.0948 62.7932 39.155 62.5667 39.2753C62.3402 39.3956 62.1032 39.569 61.8555 39.7955V42.5024C62.0819 42.7006 62.3049 42.8421 62.5242 42.9271C62.7507 43.0049 62.9489 43.0438 63.1187 43.0438Z" fill="#97144D"/>
<path fill-rule="evenodd" clip-rule="evenodd" d="M129.714 44.568V38.0261L134.36 41.8729C134.488 41.9816 134.616 42.0973 134.746 42.2207C134.875 42.344 135.012 42.4833 135.155 42.6388V38.2755H136.255V44.8132L131.513 40.8973C131.387 40.7917 131.264 40.6802 131.147 40.5628C131.027 40.4439 130.915 40.3221 130.809 40.1931V44.568H129.714Z" fill="#97144D"/>
<path fill-rule="evenodd" clip-rule="evenodd" d="M124.285 42.0965H126.323L125.574 40.6616C125.532 40.5692 125.486 40.4636 125.44 40.3448C125.394 40.2259 125.346 40.0938 125.3 39.9472C125.259 40.0851 125.218 40.2143 125.172 40.333C125.128 40.4518 125.081 40.5603 125.036 40.6616L124.285 42.0965ZM127.573 44.5677L126.743 42.9468H123.847L122.997 44.5677H121.747L125.29 38.0258L128.827 44.5677H127.573Z" fill="#97144D"/>
<path fill-rule="evenodd" clip-rule="evenodd" d="M118 40.9301H118.453C119.02 40.9301 119.421 40.8642 119.656 40.7307C119.89 40.5971 120.007 40.3727 120.007 40.0573C120.007 39.714 119.9 39.4719 119.683 39.3326C119.467 39.193 119.057 39.1241 118.453 39.1241H118V40.9301ZM118 43.7114H118.409C118.825 43.7114 119.137 43.6967 119.344 43.6687C119.55 43.6395 119.712 43.5896 119.833 43.5176C119.98 43.4355 120.093 43.3225 120.173 43.1831C120.253 43.0421 120.292 42.8883 120.292 42.718C120.292 42.5187 120.244 42.3425 120.147 42.1942C120.05 42.0447 119.912 41.9287 119.733 41.8467C119.62 41.7966 119.49 41.7614 119.346 41.738C119.201 41.716 119.008 41.7042 118.769 41.7042H118.409H118V43.7114ZM116.836 44.5658V38.2733H118.68C119.207 38.2733 119.596 38.2983 119.846 38.3468C120.097 38.3951 120.312 38.4758 120.488 38.5874C120.714 38.7311 120.89 38.9189 121.015 39.1507C121.139 39.3825 121.202 39.6393 121.202 39.9195C121.202 40.2555 121.112 40.5357 120.933 40.7602C120.752 40.9846 120.491 41.1416 120.148 41.2311C120.575 41.2884 120.911 41.4557 121.156 41.7315C121.4 42.0086 121.523 42.3564 121.523 42.7774C121.523 43.0328 121.472 43.2748 121.368 43.5036C121.265 43.7341 121.119 43.9291 120.928 44.089C120.728 44.2636 120.481 44.3867 120.184 44.4588C119.887 44.5307 119.389 44.5658 118.69 44.5658H116.836Z" fill="#97144D"/>
<path fill-rule="evenodd" clip-rule="evenodd" d="M108.105 43.3064L109.014 42.9292C109.101 43.2096 109.26 43.4239 109.489 43.5705C109.719 43.7187 110.014 43.792 110.37 43.792C110.709 43.792 110.979 43.7069 111.178 43.5382C111.378 43.3696 111.478 43.1437 111.478 42.8604C111.478 42.4906 111.136 42.1606 110.452 41.8715C110.356 41.829 110.284 41.7967 110.231 41.7777C109.459 41.4387 108.944 41.1337 108.687 40.8593C108.43 40.5864 108.301 40.2504 108.301 39.8557C108.301 39.3422 108.496 38.927 108.883 38.6087C109.271 38.2902 109.78 38.1318 110.41 38.1318C110.927 38.1318 111.36 38.2213 111.709 38.4004C112.057 38.5793 112.298 38.8375 112.432 39.172L111.54 39.5842C111.399 39.3862 111.246 39.2425 111.077 39.1515C110.91 39.0591 110.717 39.0136 110.5 39.0136C110.194 39.0136 109.95 39.0854 109.77 39.2279C109.588 39.3716 109.498 39.5637 109.498 39.8043C109.498 40.1829 109.894 40.5349 110.688 40.8608C110.748 40.8871 110.796 40.9076 110.83 40.9209C111.524 41.2084 112 41.4888 112.26 41.7615C112.518 42.0359 112.648 42.3777 112.648 42.7871C112.648 43.3827 112.438 43.8566 112.019 44.2074C111.601 44.558 111.036 44.7338 110.323 44.7338C109.726 44.7338 109.237 44.6106 108.854 44.3642C108.473 44.1177 108.223 43.7657 108.105 43.3064Z" fill="#97144D"/>
<path fill-rule="evenodd" clip-rule="evenodd" d="M105.779 44.568H106.919V38.2755H105.779V44.568Z" fill="#97144D"/>
<path fill-rule="evenodd" clip-rule="evenodd" d="M98.9417 44.566L101.217 41.2739L99.205 38.2736H100.402L101.413 39.8126C101.469 39.8917 101.569 40.059 101.716 40.3114L101.788 40.4361C101.839 40.3466 101.896 40.2526 101.958 40.1516C102.02 40.0517 102.091 39.9416 102.171 39.8215L103.239 38.2736H104.409L102.357 41.2562L104.568 44.566H103.306L102.133 42.7821L102.114 42.7527C101.986 42.5369 101.868 42.3361 101.759 42.1468C101.705 42.2436 101.646 42.3448 101.582 42.449C101.518 42.5531 101.45 42.6604 101.376 42.7689L100.149 44.566H98.9417Z" fill="#97144D"/>
<path fill-rule="evenodd" clip-rule="evenodd" d="M94.0901 42.0942H96.045L95.3268 40.6593C95.2859 40.5669 95.2419 40.4613 95.1977 40.3425C95.1535 40.2236 95.1077 40.0915 95.0635 39.9449C95.0242 40.0828 94.9848 40.212 94.9408 40.3307C94.8983 40.4495 94.854 40.558 94.81 40.6593L94.0901 42.0942ZM97.2439 44.5657L96.4471 42.9447H93.6694L92.8547 44.5657H91.6556L95.0534 38.0237L98.4462 44.5657H97.2439Z" fill="#97144D"/>
<path fill-rule="evenodd" clip-rule="evenodd" d="M71.6129 51.4694L81.8358 34.0413L84.9879 39.3121L78.1725 51.3844L71.6129 51.4694Z" fill="#97144D"/>
<path fill-rule="evenodd" clip-rule="evenodd" d="M81.919 44.8377L88.223 44.7526L92.0568 51.3839H85.5823L81.919 44.8377Z" fill="#97144D"/>
<path fill-rule="evenodd" clip-rule="evenodd" d="M141.264 38.2755L138.636 40.8798V38.2755H137.447V44.5681H138.636V41.3537L141.529 44.5681H143.063L139.82 41.0736L142.719 38.2755H141.264Z" fill="#97144D"/>
<line x1="45.8214" y1="30.2608" x2="168.147" y2="30.2608" stroke="#97144D"/>
</svg>
